<?xml version="1.0" encoding="utf-8"?>
<!-- Generated by IcoMoon.io -->
<!DOCTYPE svg PUBLIC "-//W3C//DTD SVG 1.1//EN" "http://www.w3.org/Graphics/SVG/1.1/DTD/svg11.dtd">

<svg version="1.1" xmlns="http://www.w3.org/2000/svg" xmlns:xlink="http://www.w3.org/1999/xlink" width="448" height="512" viewBox="0 0 448 512">
	<style type="text/css">
	.path1{
	fill:#ffffff;
	}
	</style>
<g id="icomoon-ignore">
</g>
<path class="path1" d="M352 448h-320v-288h320v96h32v-160c0-17.5-14.5-32-32-32h-96c0-35.5-28.5-64-64-64s-64 28.5-64 64h-96c-17.5 0-32 14.5-32 32v352c0 17.5 14.5 32 32 32h320c17.5 0 32-14.5 32-32v-64h-32v64zM96 96c14.5 0 14.5 0 32 0s32-14.5 32-32 14.5-32 32-32 32 14.5 32 32 16 32 32 32 16.5 0 32 0 32 14.5 32 32h-256c0-19.5 14-32 32-32zM64 352h64v-32h-64v32zM288 288v-64l-128 96 128 96v-64h160v-64h-160zM64 416h96v-32h-96v32zM224 192h-160v32h160v-32zM128 256h-64v32h64v-32z"></path>
</svg>
